<svg xmlns="http://www.w3.org/2000/svg" xmlns:xlink="http://www.w3.org/1999/xlink" width="100" zoomAndPan="magnify" viewBox="0 0 75 74.999997" height="100" preserveAspectRatio="xMidYMid meet" version="1.0"><defs><clipPath id="fd4ae6efbc"><path d="M 0 21.234375 L 75 21.234375 L 75 53.484375 L 0 53.484375 Z M 0 21.234375 " clip-rule="nonzero"/></clipPath></defs><g clip-path="url(#fd4ae6efbc)"><path fill="#49373a" d="M 71.761719 26.246094 L 24.683594 29.003906 C 24.457031 29.015625 24.230469 29.003906 24.003906 28.964844 C 23.777344 28.929688 23.558594 28.867188 23.347656 28.78125 C 23.136719 28.691406 22.9375 28.582031 22.75 28.453125 C 22.5625 28.320312 22.390625 28.167969 22.238281 28 C 22.085938 27.828125 21.953125 27.644531 21.839844 27.445312 C 21.726562 27.246094 21.640625 27.035156 21.574219 26.816406 C 21.511719 26.597656 21.46875 26.375 21.457031 26.144531 C 21.441406 25.917969 21.449219 25.691406 21.488281 25.464844 L 21.511719 25.339844 C 21.558594 25.027344 21.5625 24.71875 21.515625 24.40625 C 21.46875 24.09375 21.375 23.796875 21.238281 23.515625 C 21.101562 23.230469 20.921875 22.976562 20.707031 22.746094 C 20.488281 22.519531 20.242188 22.328125 19.964844 22.179688 C 19.691406 22.027344 19.398438 21.917969 19.089844 21.855469 C 18.78125 21.796875 18.46875 21.78125 18.15625 21.816406 C 17.84375 21.851562 17.542969 21.929688 17.253906 22.058594 C 16.96875 22.1875 16.703125 22.355469 16.46875 22.5625 L 1.074219 36.152344 C 0.902344 36.304688 0.75 36.472656 0.617188 36.65625 C 0.484375 36.84375 0.375 37.039062 0.285156 37.25 C 0.195312 37.460938 0.128906 37.675781 0.0898438 37.902344 C 0.0507812 38.125 0.0351562 38.351562 0.0429688 38.582031 C 0.0546875 38.808594 0.0898438 39.035156 0.148438 39.253906 C 0.210938 39.472656 0.292969 39.683594 0.402344 39.886719 C 0.507812 40.085938 0.636719 40.273438 0.785156 40.449219 C 0.9375 40.621094 1.101562 40.773438 1.285156 40.910156 L 17.242188 52.632812 C 17.722656 52.984375 18.261719 53.179688 18.855469 53.21875 C 19.449219 53.257812 20.007812 53.132812 20.527344 52.847656 C 21.050781 52.558594 21.453125 52.152344 21.738281 51.632812 C 22.023438 51.109375 22.144531 50.550781 22.101562 49.957031 L 22.03125 48.933594 C 22.015625 48.714844 22.023438 48.5 22.054688 48.285156 C 22.089844 48.066406 22.140625 47.859375 22.21875 47.652344 C 22.296875 47.449219 22.394531 47.257812 22.511719 47.074219 C 22.628906 46.890625 22.765625 46.71875 22.917969 46.566406 C 23.074219 46.410156 23.242188 46.277344 23.425781 46.15625 C 23.609375 46.039062 23.804688 45.941406 24.007812 45.867188 C 24.210938 45.789062 24.421875 45.734375 24.636719 45.703125 C 24.851562 45.671875 25.070312 45.664062 25.289062 45.675781 L 71.742188 48.691406 C 72.164062 48.722656 72.574219 48.664062 72.972656 48.523438 C 73.371094 48.378906 73.722656 48.164062 74.03125 47.875 C 74.339844 47.585938 74.578125 47.25 74.746094 46.859375 C 74.914062 46.472656 75 46.066406 75 45.644531 L 75 29.296875 C 75 28.875 74.917969 28.472656 74.75 28.085938 C 74.582031 27.699219 74.347656 27.363281 74.039062 27.074219 C 73.734375 26.785156 73.382812 26.566406 72.988281 26.425781 C 72.589844 26.28125 72.183594 26.21875 71.761719 26.246094 Z M 71.761719 26.246094 " fill-opacity="1" fill-rule="nonzero"/></g></svg>