<svg xmlns="http://www.w3.org/2000/svg" xmlns:xlink="http://www.w3.org/1999/xlink" width="100" zoomAndPan="magnify" viewBox="0 0 75 74.999997" height="100" preserveAspectRatio="xMidYMid meet" version="1.0"><defs><clipPath id="eca986bda9"><path d="M 16.324219 1 L 58.324219 1 L 58.324219 75 L 16.324219 75 Z M 16.324219 1 " clip-rule="nonzero"/></clipPath><clipPath id="c488d298cf"><path d="M 55 14 L 58.324219 14 L 58.324219 18 L 55 18 Z M 55 14 " clip-rule="nonzero"/></clipPath><clipPath id="efb8d3e333"><path d="M 16.324219 14 L 20 14 L 20 18 L 16.324219 18 Z M 16.324219 14 " clip-rule="nonzero"/></clipPath></defs><g clip-path="url(#eca986bda9)"><path fill="#e1c097" d="M 25.144531 35.867188 C 24.894531 33.8125 24.382812 31.757812 23.402344 29.464844 C 23.214844 29.023438 22.765625 29.007812 22.40625 28.878906 C 18.5625 27.515625 16.332031 22.707031 16.777344 19.214844 C 17.035156 17.183594 17.90625 15.410156 19.964844 14.699219 C 22.113281 13.953125 24.019531 14.710938 25.695312 16.105469 C 26.269531 16.589844 26.75 17.199219 27.273438 17.75 C 27.417969 16.71875 27 15.976562 26.710938 15.203125 C 25.539062 12.101562 25.152344 8.957031 26.207031 5.734375 C 26.53125 4.726562 27.070312 3.847656 27.820312 3.105469 C 29.417969 1.53125 31.972656 1.5 33.589844 3.074219 C 35.285156 4.722656 37.023438 9.914062 37.417969 12.160156 C 37.75 14.054688 38.226562 7.359375 39.691406 4.539062 C 40.632812 2.734375 42.046875 1.679688 44.167969 1.75 C 46.1875 1.8125 47.433594 2.9375 48.230469 4.667969 C 49.5625 7.550781 49.476562 10.53125 48.734375 13.546875 C 48.414062 14.839844 47.835938 16.066406 47.621094 17.601562 C 48.375 16.9375 48.96875 16.367188 49.609375 15.855469 C 51.019531 14.730469 52.589844 14.0625 54.421875 14.449219 C 56.367188 14.863281 57.621094 16.277344 57.976562 18.339844 C 58.695312 22.546875 56.546875 26.824219 52.71875 28.710938 C 52.078125 29.027344 51.6875 29.460938 51.375 30.097656 C 49.644531 33.628906 49.28125 37.351562 49.71875 41.210938 L 57.078125 102.605469 L 23 102.605469 C 23.632812 87.605469 24.027344 66.136719 24.875 51.148438 C 25.003906 48.921875 25.179688 46.695312 25.25 44.464844 C 25.351562 41.253906 25.472656 38.5625 25.144531 35.867188 Z M 25.144531 35.867188 " fill-opacity="1" fill-rule="evenodd"/></g><path fill="#af977a" d="M 46.148438 2.277344 C 45.988281 2.824219 45.742188 3.40625 45.085938 3.296875 C 44.359375 3.175781 44.351562 2.488281 44.398438 1.90625 C 44.480469 0.929688 45.191406 0.0742188 45.765625 0.195312 C 46.246094 0.296875 46.433594 1.304688 46.148438 2.277344 Z M 46.148438 2.277344 " fill-opacity="1" fill-rule="evenodd"/><g clip-path="url(#c488d298cf)"><path fill="#af977a" d="M 57.652344 16.71875 C 57.261719 17.140625 56.785156 17.546875 56.242188 17.15625 C 55.648438 16.722656 55.949219 16.105469 56.253906 15.605469 C 56.761719 14.769531 57.78125 14.320312 58.238281 14.683594 C 58.625 14.992188 58.339844 15.976562 57.652344 16.71875 Z M 57.652344 16.71875 " fill-opacity="1" fill-rule="evenodd"/></g><path fill="#af977a" d="M 28.984375 2.277344 C 29.140625 2.824219 29.386719 3.40625 30.046875 3.296875 C 30.773438 3.175781 30.78125 2.488281 30.730469 1.90625 C 30.652344 0.929688 29.941406 0.0742188 29.367188 0.195312 C 28.886719 0.296875 28.699219 1.304688 28.984375 2.277344 Z M 28.984375 2.277344 " fill-opacity="1" fill-rule="evenodd"/><g clip-path="url(#efb8d3e333)"><path fill="#af977a" d="M 17.480469 16.71875 C 17.871094 17.140625 18.347656 17.546875 18.886719 17.15625 C 19.484375 16.722656 19.183594 16.105469 18.878906 15.605469 C 18.371094 14.769531 17.351562 14.320312 16.890625 14.683594 C 16.503906 14.992188 16.792969 15.976562 17.480469 16.71875 Z M 17.480469 16.71875 " fill-opacity="1" fill-rule="evenodd"/></g></svg>