<svg xmlns="http://www.w3.org/2000/svg" xmlns:xlink="http://www.w3.org/1999/xlink" width="100" zoomAndPan="magnify" viewBox="0 0 75 74.999997" height="100" preserveAspectRatio="xMidYMid meet" version="1.0"><defs><clipPath id="be1f060e78"><path d="M 18.019531 0 L 57 0 L 57 75 L 18.019531 75 Z M 18.019531 0 " clip-rule="nonzero"/></clipPath></defs><g clip-path="url(#be1f060e78)"><path fill="#e1c097" d="M 23.703125 97.347656 L 56.925781 97.347656 C 56.925781 97.347656 53.054688 35.027344 53.054688 35.019531 C 52.960938 32.238281 53.109375 29.34375 53.800781 26.648438 C 54.296875 24.730469 55.078125 23.433594 55.941406 21.65625 C 56.589844 20.308594 56.984375 18.183594 56.917969 16.03125 C 56.804688 12.304688 55.320312 8.496094 51.398438 8.496094 C 50.8125 8.496094 50.234375 8.582031 49.664062 8.734375 C 49.699219 8.21875 49.703125 7.691406 49.664062 7.15625 C 49.4375 3.761719 47.042969 0.898438 43.855469 0.199219 C 43.402344 0.0976562 42.941406 0.046875 42.472656 0.046875 C 40.582031 0.046875 38.785156 0.867188 37.460938 2.261719 C 36.058594 0.90625 34.164062 0.167969 32.066406 0.28125 C 29.050781 0.4375 26.523438 2.605469 25.777344 5.671875 C 25.527344 6.683594 25.429688 7.683594 25.464844 8.65625 C 25.207031 8.625 24.949219 8.589844 24.6875 8.589844 C 24.332031 8.589844 23.976562 8.617188 23.625 8.671875 C 20.824219 9.121094 19.378906 11.589844 18.703125 14.101562 C 18.019531 16.636719 18.855469 18.554688 20.101562 20.734375 C 21.09375 22.472656 21.59375 24.394531 22.132812 26.304688 C 23.617188 31.5625 23.589844 36.402344 23.734375 41.703125 C 23.890625 47.484375 23.765625 53.328125 23.703125 59.113281 C 23.625 66.230469 23.660156 62.347656 23.691406 69.460938 C 23.71875 75.691406 23.714844 81.921875 23.707031 88.152344 C 23.703125 91.152344 23.6875 94.160156 23.699219 97.160156 C 23.699219 97.222656 23.703125 97.289062 23.703125 97.347656 Z M 42.472656 7.714844 C 42.496094 8.125 42.464844 8.507812 42.375 8.871094 C 42.375 8.785156 42.375 8.695312 42.375 8.601562 L 42.378906 8.492188 L 42.375 8.382812 C 42.367188 8.160156 42.390625 7.945312 42.472656 7.714844 Z M 42.472656 7.714844 " fill-opacity="1" fill-rule="nonzero"/></g><path fill="#ffdfc4" d="M 37.730469 14.675781 C 40.699219 14.671875 42.554688 15.992188 43.410156 18.890625 C 43.703125 19.882812 44.195312 20.394531 45.09375 20.742188 C 47.066406 21.507812 48.316406 22.886719 48.253906 25.285156 C 48.160156 28.808594 45.414062 30.5 42.578125 28.644531 C 39.933594 26.917969 37.25 26.761719 34.429688 27.96875 C 34.050781 28.132812 33.691406 28.351562 33.328125 28.5625 C 30.570312 30.171875 27.9375 28.601562 27.765625 25.242188 C 27.648438 22.90625 28.503906 21.394531 30.679688 20.792969 C 31.988281 20.433594 32.476562 19.742188 32.820312 18.449219 C 33.492188 15.875 35.1875 14.679688 37.730469 14.675781 Z M 37.730469 14.675781 " fill-opacity="1" fill-rule="evenodd"/><path fill="#ffdfc4" d="M 38.769531 8.515625 C 38.730469 7.46875 38.980469 6.492188 39.46875 5.589844 C 40.234375 4.175781 41.710938 3.417969 43.078125 3.71875 C 44.699219 4.074219 45.945312 5.566406 46.066406 7.398438 C 46.15625 8.746094 45.925781 10.042969 45.3125 11.25 C 44.46875 12.90625 43.390625 13.519531 41.703125 13.28125 C 40.398438 13.101562 39.335938 11.949219 38.945312 10.359375 C 38.796875 9.746094 38.753906 9.136719 38.769531 8.515625 Z M 38.769531 8.515625 " fill-opacity="1" fill-rule="evenodd"/><path fill="#ffdfc4" d="M 36.25 8.640625 C 36.359375 9.734375 36.078125 10.792969 35.527344 11.773438 C 34.265625 14.050781 31.515625 14.003906 30.027344 11.644531 C 29.039062 10.082031 28.839844 8.328125 29.277344 6.53125 C 29.664062 4.957031 30.855469 3.953125 32.257812 3.882812 C 33.949219 3.792969 35.308594 4.707031 35.929688 6.359375 C 36.199219 7.074219 36.285156 7.820312 36.25 8.640625 Z M 36.25 8.640625 " fill-opacity="1" fill-rule="evenodd"/><path fill="#ffdfc4" d="M 21.527344 16.515625 C 21.511719 14.066406 22.566406 12.496094 24.195312 12.234375 C 25.929688 11.957031 27.65625 13.175781 28.238281 15.136719 C 28.503906 16.027344 28.675781 16.929688 28.476562 17.886719 C 28.148438 19.460938 27.054688 20.789062 25.855469 20.980469 C 24.527344 21.191406 22.992188 20.367188 22.222656 19.011719 C 21.734375 18.148438 21.554688 17.199219 21.527344 16.515625 Z M 21.527344 16.515625 " fill-opacity="1" fill-rule="evenodd"/><path fill="#ffdfc4" d="M 47.417969 16.699219 C 47.550781 15.046875 48.105469 13.289062 50.023438 12.414062 C 51.855469 11.578125 53.695312 12.46875 54.265625 14.460938 C 54.769531 16.246094 54.347656 17.914062 53.378906 19.386719 C 52.445312 20.804688 51.070312 21.265625 49.738281 20.804688 C 48.328125 20.3125 47.417969 18.84375 47.417969 16.699219 Z M 47.417969 16.699219 " fill-opacity="1" fill-rule="evenodd"/><path fill="#38220f" d="M 23.734375 41.703125 C 29.34375 42.027344 34.949219 42.402344 40.566406 42.65625 C 41.472656 42.699219 42.378906 42.742188 43.285156 42.804688 C 44.382812 42.875 45.390625 42.636719 46.371094 43.203125 C 46.726562 43.410156 47.988281 44.796875 48.355469 44.714844 C 48.347656 44.71875 23.734375 50.179688 23.734375 50.179688 Z M 23.734375 41.703125 " fill-opacity="1" fill-rule="nonzero"/><path fill="#38220f" d="M 54.066406 51.261719 C 49.34375 52.554688 44.632812 53.882812 39.898438 55.132812 C 37.953125 55.648438 35.777344 56.003906 33.921875 56.78125 C 32.871094 57.222656 32.425781 58.328125 31.855469 59.246094 L 54.476562 59.246094 Z M 54.066406 51.261719 " fill-opacity="1" fill-rule="nonzero"/><path fill="#38220f" d="M 23.667969 65.726562 C 25.796875 65.851562 27.929688 65.9375 30.054688 66.085938 C 33.074219 66.296875 36.15625 66.046875 39.128906 66.734375 C 40.355469 67.015625 41.515625 67.503906 42.695312 67.933594 C 43.203125 68.121094 44.429688 68.863281 44.980469 68.777344 L 23.667969 72.195312 Z M 23.667969 65.726562 " fill-opacity="1" fill-rule="nonzero"/><path fill="#38220f" d="M 55.363281 72.195312 C 55.363281 72.195312 32.023438 79.1875 31.855469 79.238281 C 31.980469 79.199219 32.820312 80.644531 32.960938 80.796875 C 33.429688 81.308594 33.691406 81.472656 34.4375 81.433594 C 41.023438 81.09375 47.605469 80.597656 54.1875 80.179688 C 54.253906 80.175781 55.851562 80.09375 55.851562 80.074219 Z M 55.363281 72.195312 " fill-opacity="1" fill-rule="nonzero"/></svg>